<svg version="1" xmlns="http://www.w3.org/2000/svg" width="682.667" height="682.667" viewBox="0 0 512.000000 512.000000"><path d="M226 5.1c-5 .8-20.4 3.6-24 4.4-5.3 1.1-16.1 4.2-25.5 7.3-6 2-11.2 3.6-11.5 3.7-.3.1-2.2.9-4.4 1.8-2.1.9-4 1.7-4.2 1.7-.6 0-11.8 5-13.4 6-.8.5-3.4 1.8-5.8 2.9-6.1 2.9-20.4 11.6-28.7 17.5-14.5 10.4-19.4 14.5-33 28.1-12.7 12.8-16.8 17.4-25.3 28.9-18 24.1-34.1 57.7-41.3 86.6-1.8 7.2-5 22.6-5.5 27-.3 2.5-.8 5.6-1.1 7-.2 1.4-.6 12.2-.7 24-.4 23.8.3 33.1 3.8 51.4 2.6 13.2 8.7 34.1 12.8 43.6.6 1.4 1.4 3.4 1.8 4.5 5.8 15.2 19.5 39.5 29.5 52.6 1.1 1.5 2.9 3.9 4 5.4 1.1 1.6 2.5 3.3 3 3.9.6.6 3.6 4.1 6.7 7.8 8.1 9.3 17.9 18.9 27.8 27.2 4.7 3.9 8.7 7.3 9 7.6 2.8 2.9 25.6 17.3 35 22.3 26.2 13.8 63.1 25.8 87.5 28.5 8 .9 60.4.9 68 0 23.7-2.8 57.5-13.4 81.9-25.6 52.3-26.1 94.1-69.9 117.9-123.3 7.7-17.2 13.1-34.4 17.3-54.4.8-3.9 1.8-8.4 2.1-10 1-4.8 1.3-66.6.4-71.5-.5-2.5-1.1-5.9-1.4-7.5-4.6-27.9-16.9-61.4-31.2-84.9-2.5-4.1-4.5-7.9-4.5-8.5 0-.6-.4-1.1-.8-1.1s-1.6-1.3-2.5-3c-6-10.1-22.8-30.2-34.1-40.9-2.7-2.5-6.5-6.1-8.4-7.9-1.9-1.8-7.1-6-11.5-9.5-4.5-3.4-8.4-6.5-8.7-6.8-2.1-2.4-22.2-14.3-34-20.3-16.6-8.2-42-17.8-53.2-20-1.3-.2-6.2-1.4-11-2.6-4.8-1.1-10.9-2.3-13.5-2.5-2.7-.3-6.8-.7-9.3-1-8.9-1-54.6-1.2-60-.4zm46 49.3c4.7.3 9.6.8 10.9 1.1 1.2.2 4.2.6 6.6.9 3.6.5 7.1 1.1 16 3.2 1.1.3 3.1.7 4.5 1 1.4.2 3.2.7 4 1.1.8.3 2 .7 2.5.9.6.1 4.4 1.4 8.5 2.9 4.1 1.4 8.4 2.9 9.5 3.2 3.9 1.2 29.5 14.5 29.5 15.4 0 .5.4.9 1 .9 1.8 0 16.3 10.1 25 17.5 7.4 6.2 24.7 24.3 29.3 30.5 2.6 3.6 5.5 7.3 6.2 8.2 2.3 2.7 9.5 14.9 9.5 15.9 0 .5.5.9 1 .9.6 0 1 .6 1 1.4 0 .7 1 2.6 2.3 4.2 1.2 1.6 2.1 3 2 3.1-.2.2 1 3.1 2.6 6.5 4.1 9 7.9 18.9 8.4 21.8.3 1.4 1 3.6 1.6 5 1.1 2.6 4.5 15.7 5.8 22.6 1 5.1 1 60.6 0 66.4-.4 2.5-1.2 6.3-1.8 8.5-.5 2.2-1.2 5.1-1.5 6.5-.8 4.4-6.6 21.5-7.5 22.4-.5.6-.9 1.6-.9 2.4 0 2-7 17.1-11.7 25.2-3.5 6.1-13.2 21-14.6 22.6-.7.7-2.3 2.7-3.7 4.6-7.4 9.7-25.8 27.9-34.3 33.7-1.2.8-2.4 1.8-2.7 2.2-.9 1.2-14.1 9.9-15.1 9.9-.5 0-.9.4-.9.8 0 .5-2.3 1.9-5.2 3.3-2.8 1.3-5.6 2.8-6.2 3.4-1 .9-6.2 3.4-20.1 9.5-8.9 4-31.2 10.2-41.1 11.6-2.7.3-5.1.8-5.4.9-1.2.7-21 1.9-31.5 1.9-16.9-.1-33-2.2-53.1-6.9-5.7-1.3-24.9-8.1-31.9-11.3-7.5-3.4-21.4-10.9-22.5-12.1-.3-.3-1.7-1.3-3.1-2.1-2.9-1.6-4.8-2.9-14.7-10.5-7.1-5.4-7.1-5.4-18.3-16.1-18.3-17.6-30.8-35-41.8-58.6-6.5-13.7-13.7-35-15.5-45.8-.3-1.9-.9-4.6-1.3-6-1-3.8-1.2-56.8-.3-62.5.5-2.8 1.1-6.2 1.4-7.8.3-1.5.8-3.9 1.1-5.5.8-3.8 1.2-5.3 5-17.2 4.7-14.8 10.4-27.6 17.7-39.8 2.1-3.4 3.8-6.7 3.8-7.2 0-.6.5-1 1-1 .6 0 1-.6 1-1.4 0-.8.4-1.6.8-1.8.5-.2 2.3-2.6 4.2-5.3 1.9-2.8 3.9-5.5 4.5-6.1.5-.6 2.1-2.6 3.5-4.3 1.4-1.8 4.6-5.4 7.3-8.2 2.6-2.8 4.7-5.5 4.7-6s.4-.9.9-.9c.4 0 3.4-2.5 6.6-5.6 3.2-3.1 7.5-6.8 9.4-8.2 2-1.5 3.8-3 4.1-3.3 3-3.7 38.3-24.9 41.5-24.9.6 0 1.5-.4 2.1-.9 2.9-2.7 31.9-11.8 44.9-14 10.5-1.8 12.8-2 22.5-2.7 5.2-.4 9.6-.7 9.7-.8.3-.3 12.8.2 21.3.8z"/><path d="M195.3 138.9c.3 1.2 0 2.1-.6 2.1-.8 0-.8.3-.2.8 1.5 1.1 1.7 3.2.3 3.2-.8 0-.9.3-.3.8.6.4 1 2 1 3.7 0 1.6-.4 3.3-1 3.7-.7.5-.7.8 0 .8.6 0 1 1.6 1 3.5s-.4 3.5-1 3.5c-.7 0-.7.3 0 .8.6.4 1 2 1 3.7 0 1.6-.4 3.3-1 3.7-.7.5-.7.8 0 .8.6 0 1 1.6 1 3.5s-.4 3.5-1 3.5c-.7 0-.7.3 0 .8.6.4 1 2 1 3.7 0 1.6-.4 3.3-1 3.7-.7.5-.7.8 0 .8s1 23.1 1 67.2c0 43.7-.4 67.6-1 68-.7.5-.7.8 0 .8.6 0 1 1.6 1 3.5s-.4 3.5-1 3.5c-.7 0-.7.3 0 .8.6.4 1 2 1 3.7 0 1.6-.4 3.3-1 3.7-.7.5-.7.8 0 .8.6 0 1 1.6 1 3.5s-.4 3.5-1 3.5c-.7 0-.7.3 0 .8.6.4 1 2 1 3.7 0 1.6-.4 3.3-1 3.7-.7.5-.7.8 0 .8.6 0 1 1.6 1 3.5s-.4 3.5-1 3.5c-.7 0-.7.3 0 .8.6.4 1 2 1 3.7 0 1.6-.4 3.3-1 3.7-.7.5-.6.8 0 .8.7 0 .9 2.1.5 5.9-.6 6.5-.2 6.7 5.3 2.9 1.5-1.1 2.7-1.6 2.7-1.3 0 .4.7-.1 1.6-.9.8-.9 4.3-3.2 7.7-5.1 8.1-4.7 10.1-5.9 10.7-6.5.3-.3 3.9-2.5 8-5 4.1-2.4 8.1-5 8.8-5.7.7-.7 1.7-1.3 2.2-1.3.4 0 2.6-1.2 4.8-2.6 2.2-1.5 4.3-2.6 4.6-2.5.4.1 1.6-.8 2.8-1.9 1.2-1.1 2.8-2 3.5-2 .7 0 1.3-.5 1.3-1 0-.6.7-1 1.5-1s1.5-.5 1.5-1c0-.6.3-.9.8-.8.4.2 4-1.9 8-4.5s7.5-4.7 7.7-4.7c.4 0 12.1-7.3 14-8.7.6-.5 3-1.9 5.5-3.2 2.5-1.3 5.5-3.3 6.8-4.4 1.2-1.1 2.2-1.7 2.2-1.3 0 .4 1.5-.4 3.3-1.8 1.9-1.5 3.9-2.6 4.5-2.6.7 0 1.2-.5 1.2-1.1 0-.5.5-.7 1-.4.6.3 1 .2 1-.3s1.4-1.5 3-2.2c1.7-.7 3-1.6 3-2.1s.3-.8.8-.7c.4.1 3.3-1.4 6.5-3.5 3.1-2 5.9-3.7 6.1-3.7.3 0 3.1-1.7 6.3-3.8 3.2-2.1 7.5-4.6 9.6-5.7 2-1.1 3.7-2.2 3.7-2.6 0-.6 5.2-3.2 5.9-2.9.2.1.8-.5 1.3-1.4.5-.9 1.4-1.6 1.9-1.6.6 0 3-1.4 5.4-3 2.4-1.7 4.8-3 5.4-3 .6 0 1.1-.4 1.1-1 0-.5 1.1-1.2 2.5-1.6 1.4-.3 2.5-1 2.5-1.5s1-1.3 2.3-1.8c1.3-.5 3.9-2 5.9-3.3l3.5-2.4-4.9-3.2c-2.6-1.8-5-3.2-5.3-3.2-.3.1-1.2-.5-2-1.2-3.2-2.9-4.5-3.8-5.2-3.8-.5 0-1.5-.5-2.3-1.2-.8-.7-2.9-2-4.5-2.8-1.7-.8-3.5-2-4.2-2.5-.7-.6-1.9-1.6-2.8-2.3-.8-.7-1.5-1-1.5-.8 0 .5-2.8-1.2-17-10.3-1.4-.8-2.8-1.4-3.2-1.3-.5.1-.8-.2-.8-.8 0-.5-.7-1-1.5-1s-1.5-.3-1.5-.8c0-.4-1-1.2-2.3-1.8-4.3-2.1-29.2-17.6-29.8-18.6-.3-.5-.9-.9-1.3-.8-.7.2-36-21-38.3-23-.7-.5-1.7-1-2.3-1-.5 0-1-.3-1-.8 0-.4-1.8-1.6-4-2.6-2.2-1.1-4-2.4-4-2.9 0-.6-.3-.8-.6-.4-.4.3-2.6-.7-5-2.3-2.3-1.7-4.7-3-5.3-3-.6 0-1.1-.3-1.1-.8 0-.4-1.7-1.6-3.7-2.7-2.1-1.1-4.4-2.6-5.1-3.2-.7-.7-2-1.3-2.8-1.3-.8 0-1.4-.5-1.4-1 0-.6-.5-1-1-1-.6 0-3.3-1.6-6-3.5s-5.3-3.5-5.7-3.6c-.5 0-1.7-.7-2.8-1.5-1.1-.8-2.4-1.6-3-1.6-.5-.1-1.9-1-2.9-2-1.1-1-2.6-1.8-3.3-1.8-.7 0-1.3-.5-1.3-1 0-.6-.7-1-1.5-1s-1.5-.4-1.5-.9-.8-1.1-1.7-1.5c-1-.3-2.4-.9-3.2-1.2-1-.5-1.3-.1-.8 1.5z"/></svg>